<?xml version="1.0" encoding="UTF-8"?>
<svg xmlns="http://www.w3.org/2000/svg" xmlns:xlink="http://www.w3.org/1999/xlink" width="24px" height="24px" viewBox="0 0 24 24" version="1.1">
<g id="surface1">
<path style=" stroke:none;fill-rule:nonzero;fill:rgb(0%,0%,0%);fill-opacity:1;" d="M 20 2 L 9.332031 2 L 9.332031 5.332031 L 10.667969 5.332031 L 10.667969 3.332031 L 20 3.332031 C 20.398438 3.332031 20.667969 3.601562 20.667969 4 L 20.667969 11.332031 C 20.667969 11.734375 20.398438 12 20 12 L 11.332031 12 L 11.332031 16.667969 L 7.800781 16.667969 L 5.332031 18.601562 L 5.332031 16.667969 L 3.332031 16.667969 C 2.933594 16.667969 2.667969 16.398438 2.667969 16 L 2.667969 8.667969 C 2.667969 8.265625 2.933594 8 3.332031 8 L 12 8 L 12 6.667969 L 3.332031 6.667969 C 2.199219 6.667969 1.332031 7.535156 1.332031 8.667969 L 1.332031 16 C 1.332031 17.132812 2.199219 18 3.332031 18 L 4 18 L 4 21.398438 L 8.199219 18 L 12.667969 18 L 12.667969 13.332031 L 20 13.332031 C 21.132812 13.332031 22 12.464844 22 11.332031 L 22 4 C 22 2.867188 21.132812 2 20 2 Z M 20 2 "/>
<path style=" stroke:none;fill-rule:nonzero;fill:rgb(0%,0%,0%);fill-opacity:1;" d="M 4.132812 15.265625 L 5.734375 15.265625 L 6.132812 14.199219 L 8.199219 14.199219 L 8.601562 15.265625 L 10.199219 15.265625 L 7.933594 9.332031 L 6.332031 9.332031 Z M 7.132812 11 L 7.800781 13.066406 L 6.464844 13.066406 Z M 7.132812 11 "/>
<path style=" stroke:none;fill-rule:nonzero;fill:rgb(0%,0%,0%);fill-opacity:1;" d="M 13.332031 11.332031 C 14.066406 11.332031 15.066406 11.132812 16 10.667969 C 16.933594 11.132812 18 11.332031 18.667969 11.332031 L 18.667969 10 C 18.667969 10 18 10 17.265625 9.734375 C 18.066406 8.933594 18.667969 7.734375 18.667969 6 L 18.667969 5.332031 L 16.667969 5.332031 L 16.667969 4 L 15.332031 4 L 15.332031 5.332031 L 13.332031 5.332031 L 13.332031 6.667969 L 17.265625 6.667969 C 17.132812 7.867188 16.601562 8.601562 16 9.066406 C 15.601562 8.734375 15.199219 8.265625 14.933594 7.667969 L 13.535156 7.667969 C 13.800781 8.535156 14.199219 9.199219 14.734375 9.734375 C 14.066406 10 13.464844 10 13.332031 10 Z M 13.332031 11.332031 "/>
</g>
</svg>
